<?xml version="1.0" encoding="UTF-8"?>
<svg id="Capa_2" data-name="Capa 2" xmlns="http://www.w3.org/2000/svg" xmlns:xlink="http://www.w3.org/1999/xlink" viewBox="0 0 755.42 196.35">
  <defs>
    <style>
      .cls-1 {
        clip-path: url(#clippath);
      }

      .cls-2, .cls-3 {
        fill: #fff;
      }

      .cls-4 {
        clip-path: url(#clippath-1);
      }

      .cls-5 {
        clip-path: url(#clippath-4);
      }

      .cls-6 {
        clip-path: url(#clippath-3);
      }

      .cls-7 {
        clip-path: url(#clippath-2);
      }

      .cls-3 {
        stroke-width: 0px;
      }
    </style>
    <clipPath id="clippath">
      <path class="cls-3" d="m48.99,104.81c-4.03,0-7.29,3.26-7.29,7.29,0,0,0,0,0,0h0v56.33c0,.48.2.95.55,1.28,3.51,3.3,7.29,6.32,11.28,9.03,1.17.79,2.75-.04,2.75-1.45v-65.16s0-.02,0-.02c0-4.03-3.26-7.29-7.29-7.29Z"/>
    </clipPath>
    <clipPath id="clippath-1">
      <path class="cls-3" d="m156.91,104.81c-4.03,0-7.29,3.26-7.29,7.29,0,0,0,0,0,0h0v65.37c0,1.41,1.57,2.24,2.75,1.45,3.99-2.68,7.76-5.67,11.28-8.95.36-.33.56-.8.56-1.29v-56.56s0-.02,0-.02c0-4.03-3.26-7.29-7.29-7.29Z"/>
    </clipPath>
    <clipPath id="clippath-2">
      <path class="cls-3" d="m134.03,52.11c-4.03,0-7.29,3.26-7.29,7.29,0,0,0,0,0,0h0v116.52h0c0,2.18-1.77,3.96-3.96,3.96s-3.96-1.77-3.96-3.96h0v-102.76h0c0-8.69-7.05-15.74-15.74-15.74s-15.74,7.05-15.74,15.74c0,.01,0,.03,0,.04v102.72h0c0,2.28-1.85,4.13-4.13,4.13s-4.13-1.85-4.13-4.13h0V59.41h0s0,0,0,0c0-4.03-3.26-7.29-7.29-7.29s-7.29,3.26-7.29,7.29c0,0,0,.01,0,.02v124.55c0,.68.39,1.3,1,1.59,4.12,1.95,8.42,3.58,12.85,4.87h0c.24.08.49.15.74.22,2.7.76,5.46,1.4,8.26,1.91,3.24.59,6.55,1,9.91,1.21,1.02.07,1.88-.74,1.88-1.76v-78.49c0-2.4,2.13-4.3,4.61-3.9,1.93.31,3.31,2.06,3.31,4.02v78.38c0,1.02.86,1.82,1.88,1.76,3.11-.2,6.19-.57,9.21-1.1h0c.24-.04.47-.08.7-.12,2.68-.48,5.32-1.09,7.91-1.81.3-.08.6-.17.9-.26h0c4.37-1.27,8.6-2.87,12.68-4.76.62-.29,1.01-.91,1.01-1.59V59.42s0-.01,0-.02c0-4.03-3.26-7.29-7.29-7.29Z"/>
    </clipPath>
    <clipPath id="clippath-3">
      <path class="cls-3" d="m70.34,32.34c.26-.13.51-.26.78-.38,2.64-1.47,4.37-4.4,4.1-7.69-.32-3.89-3.5-7.05-7.39-7.34-1.08-.08-2.11.05-3.07.36-.71.34-1.42.69-2.12,1.05-29.64,15.18-50.01,46.63-50.01,82.96,0,22.07,7.51,42.34,20.05,58.25.5.63,1.51.28,1.51-.53v-25.38c0-1.43-.27-2.84-.79-4.17-3.36-8.72-5.21-18.23-5.21-28.18,0-30.36,17.2-56.59,42.14-68.97Z"/>
    </clipPath>
    <clipPath id="clippath-4">
      <path class="cls-3" d="m171.71,159.04c0,.8,1.02,1.16,1.51.53,12.54-15.91,20.05-36.18,20.05-58.25,0-36.34-20.37-67.79-50.01-82.96-.64-.45-1.35-.81-2.12-1.05-.96-.31-1.99-.44-3.07-.36-3.9.28-7.08,3.44-7.39,7.34-.27,3.3,1.46,6.22,4.1,7.69.25.14.51.27.78.38,24.94,12.38,42.14,38.61,42.14,68.97,0,9.95-1.85,19.45-5.21,28.18-.51,1.33-.79,2.75-.79,4.17v25.38Z"/>
    </clipPath>
  </defs>
  <g id="Capa_2-2" data-name="Capa 2">
    <g>
      <g>
        <g>
          <path class="cls-3" d="m349.79,165.18l-3.86-10.66v10.66h-3.45v-15.88h4.74l3.7,10.39,3.7-10.39h4.74v15.88h-3.45v-10.66l-3.86,10.66h-2.27Z"/>
          <path class="cls-3" d="m373.48,163.73c-1.26-1.15-1.88-2.64-1.88-4.47v-9.96h3.45v9.96c0,.92.31,1.67.93,2.26s1.42.87,2.4.87,1.78-.29,2.4-.87.93-1.33.93-2.26v-9.96h3.45v9.96c0,1.83-.63,3.32-1.88,4.47s-2.89,1.72-4.9,1.72-3.64-.57-4.9-1.72Z"/>
          <path class="cls-3" d="m400.74,152.41c-.48.26-.71.68-.71,1.27,0,.33.15.62.45.86.3.24.65.42,1.04.54.39.12.89.25,1.5.39.2.03.34.06.43.09.6.15,1.12.29,1.53.41.42.12.89.31,1.42.58.53.26.95.56,1.27.88s.59.76.82,1.29c.23.54.34,1.14.34,1.8,0,1.56-.58,2.77-1.75,3.63-1.16.86-2.56,1.29-4.17,1.29-1.26,0-2.48-.22-3.69-.65-1.2-.43-2.26-1.05-3.16-1.87l1.91-2.5c1.48,1.36,3.11,2.04,4.88,2.04s2.52-.6,2.52-1.81c0-.21-.04-.4-.11-.58-.08-.17-.2-.33-.37-.45-.17-.13-.35-.24-.53-.34-.18-.1-.42-.19-.73-.28-.3-.09-.57-.17-.81-.23-.23-.06-.54-.14-.92-.23s-.69-.17-.93-.23c-.5-.14-.94-.27-1.32-.41-.38-.14-.77-.33-1.18-.58-.41-.25-.74-.52-1-.82-.26-.29-.47-.67-.65-1.13-.17-.46-.26-.97-.26-1.53,0-1.51.57-2.7,1.71-3.55,1.14-.85,2.5-1.28,4.07-1.28,2.12,0,4.09.68,5.92,2.04l-1.68,2.61c-1.42-1.1-2.81-1.66-4.17-1.66-.64,0-1.19.13-1.67.39Z"/>
          <path class="cls-3" d="m423.61,165.18h-3.45v-15.88h3.45v15.88Z"/>
          <path class="cls-3" d="m437.39,163.13c-1.57-1.55-2.36-3.51-2.36-5.89s.79-4.34,2.36-5.89c1.57-1.55,3.54-2.32,5.9-2.32s4.2.81,5.85,2.43l-2.25,2.27c-.44-.51-.98-.91-1.62-1.2-.64-.29-1.3-.43-1.98-.43-1.42,0-2.56.5-3.43,1.49s-1.29,2.21-1.29,3.66.43,2.67,1.29,3.66,2,1.49,3.43,1.49,2.71-.61,3.7-1.81l2.45,2c-1.6,1.92-3.65,2.88-6.15,2.88-2.36,0-4.32-.78-5.9-2.33Z"/>
          <path class="cls-3" d="m476.84,163.13c-1.57-1.55-2.36-3.51-2.36-5.89s.79-4.34,2.36-5.89c1.57-1.55,3.54-2.32,5.9-2.32s4.2.81,5.85,2.43l-2.25,2.27c-.44-.51-.98-.91-1.62-1.2-.64-.29-1.3-.43-1.98-.43-1.42,0-2.56.5-3.43,1.49s-1.29,2.21-1.29,3.66.43,2.67,1.29,3.66,2,1.49,3.43,1.49,2.71-.61,3.7-1.81l2.45,2c-1.6,1.92-3.65,2.88-6.15,2.88-2.36,0-4.32-.78-5.9-2.33Z"/>
          <path class="cls-3" d="m512.5,163.13c-1.57,1.55-3.54,2.33-5.9,2.33s-4.32-.78-5.9-2.33-2.36-3.51-2.36-5.89.79-4.34,2.36-5.89,3.54-2.32,5.9-2.32,4.32.77,5.9,2.32c1.57,1.55,2.36,3.51,2.36,5.89s-.79,4.34-2.36,5.89Zm-2.47-9.55c-.86-.99-2-1.49-3.43-1.49s-2.56.5-3.43,1.49c-.86.99-1.29,2.21-1.29,3.66s.43,2.67,1.29,3.66c.86.99,2,1.49,3.43,1.49s2.56-.5,3.43-1.49c.86-.99,1.29-2.21,1.29-3.66s-.43-2.67-1.29-3.66Z"/>
          <path class="cls-3" d="m533.59,165.18l-3.86-10.66v10.66h-3.45v-15.88h4.74l3.7,10.39,3.7-10.39h4.74v15.88h-3.45v-10.66l-3.86,10.66h-2.27Z"/>
          <path class="cls-3" d="m562.1,149.3c1.66,0,3.03.5,4.11,1.5,1.07,1,1.61,2.28,1.61,3.83s-.54,2.84-1.61,3.85c-1.07,1.01-2.44,1.51-4.11,1.51h-3.13v5.19h-3.45v-15.88h6.58Zm-.05,7.71c.67,0,1.21-.23,1.64-.68.43-.45.65-1.03.65-1.72s-.22-1.24-.65-1.68c-.43-.44-.98-.66-1.64-.66h-3.08v4.74h3.08Z"/>
          <path class="cls-3" d="m585.61,149.3l6.12,15.88h-3.65l-1.09-3.02h-6.19l-1.07,3.02h-3.65l6.12-15.88h3.4Zm-3.74,9.89h4.06l-2.02-5.69-2.04,5.69Z"/>
          <path class="cls-3" d="m616.07,165.18h-3.45l-6.8-10.3v10.3h-3.45v-15.88h3.45l6.8,10.28v-10.28h3.45v15.88Z"/>
          <path class="cls-3" d="m630.72,149.3l3.63,7.05,3.65-7.05h3.99l-5.92,10.43v5.44h-3.45v-5.44l-5.9-10.43h3.99Z"/>
        </g>
        <g>
          <path class="cls-3" d="m238.86,121.76c-6.54-5.98-9.8-13.74-9.8-23.27v-51.85h17.95v51.85c0,4.8,1.61,8.72,4.84,11.75,3.23,3.03,7.4,4.55,12.52,4.55s9.29-1.52,12.52-4.55c3.23-3.03,4.84-6.95,4.84-11.75v-51.85h17.95v51.85c0,9.53-3.27,17.28-9.8,23.27-6.54,5.98-15.04,8.98-25.51,8.98s-18.98-2.99-25.51-8.98Z"/>
          <path class="cls-3" d="m327,129.32h-16.42V46.64h16.42v82.68Z"/>
          <path class="cls-3" d="m341.22,71.21v-15.59h16.42v15.59h13.11v13.11h-13.11v25.51c0,4.65,2.28,6.97,6.85,6.97,1.97,0,3.54-.59,4.72-1.77l3.78,12.64c-1.26.87-3.13,1.59-5.61,2.19-2.48.59-4.7.89-6.67.89-12.99,0-19.49-6.73-19.49-20.2v-26.22h-9.09v-13.11h9.09Z"/>
          <path class="cls-3" d="m394.08,81.37c1.81-3.31,4.49-6.06,8.03-8.27,3.54-2.2,7.2-3.31,10.98-3.31h1.18v15.47c-1.1-.24-2.32-.35-3.66-.35-4.25,0-8.07,1.44-11.46,4.31-3.39,2.87-5.08,6.48-5.08,10.81v29.29h-16.42v-58.11h16.42v10.16Z"/>
          <path class="cls-3" d="m462.27,75.64c4.65,3.9,6.97,9.15,6.97,15.77v37.91h-16.42v-5.31c-4.33,4.49-9.92,6.73-16.77,6.73-6.14,0-11.28-1.87-15.41-5.61-4.13-3.74-6.2-8.37-6.2-13.88,0-5.91,2.36-10.65,7.09-14.23,4.72-3.58,10.98-5.37,18.78-5.37,3.86,0,8.03.83,12.52,2.48v-2.13c0-2.6-1.08-4.63-3.25-6.08-2.17-1.46-5.18-2.19-9.04-2.19-2.99,0-6,.41-9.04,1.24-3.03.83-5.33,1.87-6.91,3.13l-6.85-11.57c8.58-4.49,17.17-6.73,25.75-6.73,7.87,0,14.13,1.95,18.78,5.85Zm-13.11,40.39c2.44-1.77,3.66-3.88,3.66-6.32v-5.43c-3.31-1.26-6.81-1.89-10.51-1.89s-6.44.79-8.68,2.36c-2.24,1.57-3.37,3.58-3.37,6.02s.94,4.27,2.83,5.73c1.89,1.46,4.37,2.19,7.44,2.19,3.31,0,6.18-.89,8.62-2.66Z"/>
          <path class="cls-3" d="m498.17,62.82c-2.48,1.34-3.72,3.54-3.72,6.61,0,1.73.79,3.23,2.36,4.49,1.57,1.26,3.39,2.2,5.43,2.84,2.05.63,4.65,1.3,7.8,2.01,1.02.16,1.77.31,2.24.47,3.15.79,5.81,1.5,7.97,2.13,2.16.63,4.63,1.63,7.38,3.01,2.76,1.38,4.96,2.91,6.61,4.61,1.65,1.69,3.07,3.94,4.25,6.73,1.18,2.8,1.77,5.93,1.77,9.39,0,8.11-3.03,14.41-9.1,18.9-6.06,4.49-13.31,6.73-21.73,6.73-6.54,0-12.93-1.12-19.19-3.37-6.26-2.24-11.75-5.49-16.48-9.74l9.92-12.99c7.72,7.09,16.18,10.63,25.39,10.63s13.11-3.15,13.11-9.45c0-1.1-.2-2.11-.59-3.01s-1.04-1.69-1.95-2.36-1.83-1.26-2.78-1.77c-.94-.51-2.2-1-3.78-1.48s-2.97-.87-4.19-1.18c-1.22-.31-2.81-.71-4.78-1.18-1.97-.47-3.58-.87-4.84-1.18-2.6-.71-4.88-1.42-6.85-2.13s-4.02-1.71-6.14-3.01-3.86-2.72-5.2-4.25c-1.34-1.54-2.46-3.5-3.37-5.91s-1.36-5.06-1.36-7.97c0-7.87,2.97-14.04,8.92-18.48,5.94-4.45,13.01-6.67,21.2-6.67,11.02,0,21.3,3.54,30.83,10.63l-8.74,13.58c-7.4-5.75-14.65-8.62-21.73-8.62-3.31,0-6.2.67-8.68,2.01Z"/>
          <path class="cls-3" d="m596.81,121.94c-5.98,5.87-13.39,8.8-22.21,8.8s-16.22-2.93-22.21-8.8c-5.98-5.87-8.98-13.09-8.98-21.67s2.99-15.81,8.98-21.67c5.98-5.87,13.39-8.8,22.21-8.8s16.22,2.93,22.21,8.8c5.98,5.87,8.98,13.09,8.98,21.67s-2.99,15.81-8.98,21.67Zm-11.63-33.6c-2.72-3.07-6.24-4.61-10.57-4.61s-7.85,1.54-10.57,4.61c-2.72,3.07-4.07,7.05-4.07,11.93s1.36,8.86,4.07,11.93c2.72,3.07,6.24,4.61,10.57,4.61s7.85-1.54,10.57-4.61c2.72-3.07,4.07-7.05,4.07-11.93s-1.36-8.86-4.07-11.93Z"/>
          <path class="cls-3" d="m629.21,78.18c3.94-5.59,9.76-8.39,17.48-8.39,6.3,0,11.42,1.99,15.36,5.96,3.94,3.98,5.91,9.19,5.91,15.65v37.91h-16.42v-35.91c0-2.83-1-5.16-3.01-6.97-2.01-1.81-4.59-2.72-7.74-2.72-3.31,0-6.06,1-8.27,3.01-2.2,2.01-3.31,4.63-3.31,7.85v34.72h-16.42v-58.11h16.42v6.97Z"/>
          <path class="cls-3" d="m679.04,48.12c1.89-1.93,4.17-2.89,6.85-2.89,2.83,0,5.2.96,7.09,2.89,1.89,1.93,2.83,4.27,2.83,7.03s-.94,5.06-2.83,6.91c-1.89,1.85-4.25,2.78-7.09,2.78-2.68,0-4.96-.95-6.85-2.84-1.89-1.89-2.83-4.17-2.83-6.85s.94-5.1,2.83-7.03Zm15.12,81.2h-16.42v-58.11h16.42v58.11Z"/>
          <path class="cls-3" d="m709.83,122.06c-6.06-5.79-9.09-13.05-9.09-21.79s2.99-15.91,8.98-21.73c5.98-5.83,13.39-8.74,22.21-8.74s16.54,3.07,22.44,9.21l-10.16,10.16c-2.84-3.62-6.89-5.43-12.17-5.43-4.41,0-7.97,1.54-10.69,4.61-2.72,3.07-4.07,7.05-4.07,11.93s1.4,8.86,4.19,11.93c2.8,3.07,6.4,4.61,10.81,4.61,5.43,0,9.61-2.01,12.52-6.02l10.63,9.57c-5.59,6.93-13.39,10.39-23.39,10.39-8.74,0-16.14-2.89-22.21-8.68Z"/>
        </g>
      </g>
      <g>
        <g>
          <path class="cls-2" d="m48.99,104.81c-4.03,0-7.29,3.26-7.29,7.29,0,0,0,0,0,0h0v56.33c0,.48.2.95.55,1.28,3.51,3.3,7.29,6.32,11.28,9.03,1.17.79,2.75-.04,2.75-1.45v-65.16s0-.02,0-.02c0-4.03-3.26-7.29-7.29-7.29Z"/>
          <g class="cls-1">
            <rect class="cls-3" x="35.61" width="28.81" height="196.35"/>
          </g>
        </g>
        <g>
          <path class="cls-2" d="m156.91,104.81c-4.03,0-7.29,3.26-7.29,7.29,0,0,0,0,0,0h0v65.37c0,1.41,1.57,2.24,2.75,1.45,3.99-2.68,7.76-5.67,11.28-8.95.36-.33.56-.8.56-1.29v-56.56s0-.02,0-.02c0-4.03-3.26-7.29-7.29-7.29Z"/>
          <g class="cls-4">
            <rect class="cls-3" x="146.99" width="20.42" height="196.35"/>
          </g>
        </g>
        <g>
          <path class="cls-2" d="m134.03,52.11c-4.03,0-7.29,3.26-7.29,7.29,0,0,0,0,0,0h0v116.52h0c0,2.18-1.77,3.96-3.96,3.96s-3.96-1.77-3.96-3.96h0v-102.76h0c0-8.69-7.05-15.74-15.74-15.74s-15.74,7.05-15.74,15.74c0,.01,0,.03,0,.04v102.72h0c0,2.28-1.85,4.13-4.13,4.13s-4.13-1.85-4.13-4.13h0V59.41h0s0,0,0,0c0-4.03-3.26-7.29-7.29-7.29s-7.29,3.26-7.29,7.29c0,0,0,.01,0,.02v124.55c0,.68.39,1.3,1,1.59,4.12,1.95,8.42,3.58,12.85,4.87h0c.24.08.49.15.74.22,2.7.76,5.46,1.4,8.26,1.91,3.24.59,6.55,1,9.91,1.21,1.02.07,1.88-.74,1.88-1.76v-78.49c0-2.4,2.13-4.3,4.61-3.9,1.93.31,3.31,2.06,3.31,4.02v78.38c0,1.02.86,1.82,1.88,1.76,3.11-.2,6.19-.57,9.21-1.1h0c.24-.04.47-.08.7-.12,2.68-.48,5.32-1.09,7.91-1.81.3-.08.6-.17.9-.26h0c4.37-1.27,8.6-2.87,12.68-4.76.62-.29,1.01-.91,1.01-1.59V59.42s0-.01,0-.02c0-4.03-3.26-7.29-7.29-7.29Z"/>
          <g class="cls-7">
            <rect class="cls-3" x="61.51" width="85.48" height="196.35"/>
          </g>
        </g>
        <g>
          <path class="cls-2" d="m70.34,32.34c.26-.13.51-.26.78-.38,2.64-1.47,4.37-4.4,4.1-7.69-.32-3.89-3.5-7.05-7.39-7.34-1.08-.08-2.11.05-3.07.36-.71.34-1.42.69-2.12,1.05-29.64,15.18-50.01,46.63-50.01,82.96,0,22.07,7.51,42.34,20.05,58.25.5.63,1.51.28,1.51-.53v-25.38c0-1.43-.27-2.84-.79-4.17-3.36-8.72-5.21-18.23-5.21-28.18,0-30.36,17.2-56.59,42.14-68.97Z"/>
          <g class="cls-6">
            <rect class="cls-3" width="79.08" height="196.35"/>
          </g>
        </g>
        <g>
          <path class="cls-2" d="m171.71,159.04c0,.8,1.02,1.16,1.51.53,12.54-15.91,20.05-36.18,20.05-58.25,0-36.34-20.37-67.79-50.01-82.96-.64-.45-1.35-.81-2.12-1.05-.96-.31-1.99-.44-3.07-.36-3.9.28-7.08,3.44-7.39,7.34-.27,3.3,1.46,6.22,4.1,7.69.25.14.51.27.78.38,24.94,12.38,42.14,38.61,42.14,68.97,0,9.95-1.85,19.45-5.21,28.18-.51,1.33-.79,2.75-.79,4.17v25.38Z"/>
          <g class="cls-5">
            <rect class="cls-3" x="128.64" width="77.89" height="196.35"/>
          </g>
        </g>
      </g>
    </g>
  </g>
</svg>