<?xml version="1.0" encoding="UTF-8"?>
<svg id="Capa_2" data-name="Capa 2" xmlns="http://www.w3.org/2000/svg" xmlns:xlink="http://www.w3.org/1999/xlink" viewBox="0 0 411.24 397.38">
  <defs>
    <style>
      .cls-1 {
        clip-path: url(#clippath);
      }

      .cls-2, .cls-3 {
        fill: #fff;
      }

      .cls-4 {
        clip-path: url(#clippath-1);
      }

      .cls-5 {
        clip-path: url(#clippath-4);
      }

      .cls-6 {
        clip-path: url(#clippath-3);
      }

      .cls-7 {
        clip-path: url(#clippath-2);
      }

      .cls-3 {
        stroke-width: 0px;
      }
    </style>
    <clipPath id="clippath">
      <path class="cls-3" d="m126.77,153.15c-5.88,0-10.66,4.77-10.66,10.66,0,0,0,0,0,0h0v82.31c0,.71.29,1.39.81,1.87,5.14,4.83,10.65,9.24,16.48,13.19,1.71,1.16,4.02-.05,4.02-2.12v-95.22s0-.02,0-.04c0-5.88-4.77-10.66-10.66-10.66Z"/>
    </clipPath>
    <clipPath id="clippath-1">
      <path class="cls-3" d="m284.46,153.15c-5.88,0-10.66,4.77-10.66,10.66,0,0,0,0,0,0h0v95.51c0,2.06,2.3,3.27,4.01,2.12,5.83-3.91,11.34-8.29,16.48-13.08.52-.49.81-1.17.81-1.88v-82.64s0-.02,0-.04c0-5.88-4.77-10.66-10.66-10.66Z"/>
    </clipPath>
    <clipPath id="clippath-2">
      <path class="cls-3" d="m251.03,76.15c-5.88,0-10.66,4.77-10.66,10.66,0,0,0,0,0,0h0v170.26h0c0,3.19-2.59,5.78-5.78,5.78s-5.78-2.59-5.78-5.78h0V106.91h0c0-12.71-10.3-23-23-23s-23,10.3-23,23c0,.02,0,.04,0,.06v150.1h0c0,3.33-2.7,6.03-6.03,6.03s-6.03-2.7-6.03-6.03h0V86.81h0s0,0,0,0c0-5.88-4.77-10.66-10.66-10.66s-10.66,4.77-10.66,10.66c0,0,0,.02,0,.03v181.99c0,.99.57,1.9,1.46,2.32,6.02,2.84,12.3,5.22,18.77,7.11h0c.36.11.72.22,1.08.32,3.95,1.11,7.97,2.05,12.07,2.79,4.74.86,9.57,1.45,14.47,1.77,1.48.1,2.75-1.08,2.75-2.56v-114.69c0-3.5,3.12-6.28,6.73-5.7,2.82.45,4.83,3.01,4.83,5.87v114.53c0,1.49,1.26,2.66,2.74,2.56,4.55-.3,9.04-.83,13.46-1.6h0c.35-.06.69-.12,1.03-.18,3.92-.7,7.77-1.59,11.56-2.64.43-.12.87-.25,1.31-.37h0c6.38-1.86,12.57-4.19,18.53-6.96.9-.42,1.47-1.33,1.47-2.33V86.83s0-.02,0-.03c0-5.88-4.77-10.66-10.66-10.66Z"/>
    </clipPath>
    <clipPath id="clippath-3">
      <path class="cls-3" d="m157.96,47.25c.38-.19.75-.38,1.14-.56,3.86-2.15,6.38-6.42,5.99-11.24-.47-5.69-5.11-10.3-10.8-10.72-1.57-.11-3.09.08-4.49.53-1.04.5-2.07,1.01-3.09,1.54-43.31,22.18-73.07,68.13-73.07,121.23,0,32.25,10.98,61.87,29.3,85.12.73.92,2.21.4,2.21-.77v-37.08c0-2.09-.4-4.15-1.15-6.1-4.91-12.74-7.61-26.63-7.61-41.17,0-44.36,25.13-82.69,61.57-100.78Z"/>
    </clipPath>
    <clipPath id="clippath-4">
      <path class="cls-3" d="m306.09,232.39c0,1.17,1.48,1.69,2.21.77,18.33-23.25,29.3-52.87,29.3-85.12,0-53.1-29.76-99.05-73.07-121.23-.94-.66-1.98-1.18-3.09-1.54-1.4-.45-2.91-.65-4.49-.53-5.7.42-10.34,5.03-10.8,10.72-.39,4.82,2.13,9.09,5.99,11.24.37.21.75.4,1.14.56,36.44,18.09,61.57,56.42,61.57,100.78,0,14.54-2.7,28.43-7.61,41.17-.75,1.95-1.15,4.01-1.15,6.1v37.08Z"/>
    </clipPath>
  </defs>
  <g id="Capa_2-2" data-name="Capa 2">
    <g>
      <g>
        <path class="cls-3" d="m94.33,397.17l-3.01-8.33v8.33h-2.69v-12.4h3.7l2.89,8.12,2.89-8.12h3.7v12.4h-2.69v-8.33l-3.01,8.33h-1.77Z"/>
        <path class="cls-3" d="m112.84,396.04c-.98-.9-1.47-2.06-1.47-3.49v-7.78h2.69v7.78c0,.72.24,1.31.73,1.76s1.11.68,1.88.68,1.39-.23,1.88-.68.73-1.04.73-1.76v-7.78h2.69v7.78c0,1.43-.49,2.59-1.47,3.49s-2.26,1.35-3.83,1.35-2.85-.45-3.83-1.35Z"/>
        <path class="cls-3" d="m134.13,387.19c-.37.2-.56.53-.56.99,0,.26.12.48.35.67.24.19.51.33.82.43.31.09.7.19,1.17.3.15.02.27.05.34.07.47.12.87.22,1.2.32.32.09.69.24,1.11.45.41.21.74.44.99.69s.46.59.64,1.01c.18.42.27.89.27,1.41,0,1.22-.45,2.16-1.36,2.84-.91.67-2,1.01-3.26,1.01-.98,0-1.94-.17-2.88-.51-.94-.34-1.76-.82-2.47-1.46l1.49-1.95c1.16,1.06,2.43,1.6,3.81,1.6s1.97-.47,1.97-1.42c0-.17-.03-.32-.09-.45-.06-.14-.16-.25-.29-.35-.14-.1-.27-.19-.42-.27-.14-.08-.33-.15-.57-.22-.24-.07-.45-.13-.63-.18-.18-.05-.42-.11-.72-.18s-.54-.13-.73-.18c-.39-.11-.73-.21-1.03-.32-.3-.11-.6-.26-.92-.45-.32-.2-.58-.41-.78-.64-.2-.23-.37-.53-.51-.89-.14-.36-.2-.76-.2-1.2,0-1.18.45-2.11,1.34-2.77.89-.67,1.95-1,3.18-1,1.65,0,3.2.53,4.63,1.59l-1.31,2.04c-1.11-.86-2.2-1.29-3.26-1.29-.5,0-.93.1-1.3.3Z"/>
        <path class="cls-3" d="m152,397.17h-2.69v-12.4h2.69v12.4Z"/>
        <path class="cls-3" d="m162.77,395.57c-1.23-1.21-1.84-2.74-1.84-4.6s.61-3.39,1.84-4.6c1.23-1.21,2.76-1.82,4.61-1.82s3.28.63,4.57,1.9l-1.75,1.77c-.34-.4-.76-.71-1.27-.94-.5-.22-1.02-.34-1.55-.34-1.11,0-2,.39-2.68,1.16s-1.01,1.73-1.01,2.86.34,2.09,1.01,2.86,1.57,1.16,2.68,1.16,2.12-.47,2.89-1.42l1.91,1.56c-1.25,1.5-2.85,2.25-4.8,2.25-1.84,0-3.38-.61-4.61-1.82Z"/>
        <path class="cls-3" d="m193.59,395.57c-1.23-1.21-1.84-2.74-1.84-4.6s.61-3.39,1.84-4.6c1.23-1.21,2.76-1.82,4.61-1.82s3.28.63,4.57,1.9l-1.75,1.77c-.34-.4-.76-.71-1.27-.94-.5-.22-1.02-.34-1.55-.34-1.11,0-2,.39-2.68,1.16s-1.01,1.73-1.01,2.86.34,2.09,1.01,2.86,1.57,1.16,2.68,1.16,2.12-.47,2.89-1.42l1.91,1.56c-1.25,1.5-2.85,2.25-4.8,2.25-1.84,0-3.38-.61-4.61-1.82Z"/>
        <path class="cls-3" d="m221.45,395.57c-1.23,1.21-2.76,1.82-4.61,1.82s-3.38-.61-4.61-1.82-1.84-2.74-1.84-4.6.61-3.39,1.84-4.6,2.76-1.82,4.61-1.82,3.38.61,4.61,1.82c1.23,1.21,1.84,2.74,1.84,4.6s-.61,3.39-1.84,4.6Zm-1.93-7.46c-.67-.77-1.57-1.16-2.68-1.16s-2,.39-2.68,1.16c-.67.77-1.01,1.73-1.01,2.86s.34,2.09,1.01,2.86c.67.77,1.57,1.16,2.68,1.16s2-.39,2.68-1.16c.67-.77,1.01-1.73,1.01-2.86s-.34-2.09-1.01-2.86Z"/>
        <path class="cls-3" d="m237.93,397.17l-3.01-8.33v8.33h-2.69v-12.4h3.7l2.89,8.12,2.89-8.12h3.7v12.4h-2.69v-8.33l-3.01,8.33h-1.77Z"/>
        <path class="cls-3" d="m260.2,384.76c1.3,0,2.37.39,3.21,1.17.84.78,1.26,1.78,1.26,2.99s-.42,2.22-1.26,3c-.84.79-1.91,1.18-3.21,1.18h-2.45v4.06h-2.69v-12.4h5.14Zm-.04,6.03c.52,0,.95-.18,1.28-.53.34-.35.51-.8.51-1.35s-.17-.97-.51-1.31c-.34-.34-.77-.51-1.28-.51h-2.41v3.7h2.41Z"/>
        <path class="cls-3" d="m278.57,384.76l4.78,12.4h-2.85l-.85-2.36h-4.84l-.83,2.36h-2.85l4.78-12.4h2.66Zm-2.92,7.73h3.17l-1.58-4.45-1.6,4.45Z"/>
        <path class="cls-3" d="m302.37,397.17h-2.69l-5.32-8.05v8.05h-2.69v-12.4h2.69l5.32,8.03v-8.03h2.69v12.4Z"/>
        <path class="cls-3" d="m313.81,384.76l2.84,5.51,2.85-5.51h3.12l-4.63,8.15v4.25h-2.69v-4.25l-4.61-8.15h3.12Z"/>
      </g>
      <g>
        <path class="cls-3" d="m7.66,363.25c-5.11-4.68-7.66-10.74-7.66-18.18v-40.51h14.03v40.51c0,3.75,1.26,6.81,3.78,9.18,2.52,2.37,5.78,3.55,9.78,3.55s7.26-1.18,9.78-3.55c2.52-2.37,3.78-5.43,3.78-9.18v-40.51h14.03v40.51c0,7.44-2.55,13.5-7.66,18.18-5.11,4.68-11.75,7.01-19.93,7.01s-14.83-2.34-19.93-7.01Z"/>
        <path class="cls-3" d="m76.53,369.15h-12.83v-64.59h12.83v64.59Z"/>
        <path class="cls-3" d="m87.64,323.75v-12.18h12.83v12.18h10.24v10.24h-10.24v19.93c0,3.63,1.78,5.44,5.35,5.44,1.54,0,2.77-.46,3.69-1.38l2.95,9.87c-.98.68-2.45,1.25-4.38,1.71-1.94.46-3.68.69-5.21.69-10.15,0-15.23-5.26-15.23-15.78v-20.49h-7.11v-10.24h7.11Z"/>
        <path class="cls-3" d="m128.93,331.69c1.41-2.58,3.51-4.74,6.28-6.46s5.63-2.58,8.58-2.58h.92v12.09c-.86-.18-1.81-.28-2.86-.28-3.32,0-6.31,1.12-8.95,3.37-2.65,2.25-3.97,5.06-3.97,8.44v22.89h-12.83v-45.4h12.83v7.94Z"/>
        <path class="cls-3" d="m182.21,327.21c3.63,3.04,5.44,7.15,5.44,12.32v29.62h-12.83v-4.15c-3.38,3.51-7.75,5.26-13.1,5.26-4.8,0-8.81-1.46-12.04-4.38-3.23-2.92-4.84-6.54-4.84-10.84,0-4.61,1.85-8.32,5.54-11.12,3.69-2.8,8.58-4.2,14.67-4.2,3.01,0,6.28.65,9.78,1.94v-1.66c0-2.03-.85-3.61-2.54-4.75-1.69-1.14-4.04-1.71-7.06-1.71-2.34,0-4.69.32-7.06.97s-4.17,1.46-5.4,2.45l-5.35-9.04c6.71-3.51,13.41-5.26,20.12-5.26,6.15,0,11.04,1.52,14.67,4.57Zm-10.24,31.56c1.91-1.38,2.86-3.03,2.86-4.94v-4.24c-2.58-.98-5.32-1.48-8.21-1.48s-5.03.61-6.78,1.85c-1.75,1.23-2.63,2.8-2.63,4.71s.74,3.34,2.21,4.48c1.48,1.14,3.41,1.71,5.81,1.71,2.58,0,4.83-.69,6.74-2.08Z"/>
        <path class="cls-3" d="m210.25,317.2c-1.94,1.05-2.91,2.77-2.91,5.17,0,1.35.62,2.52,1.85,3.51,1.23.98,2.65,1.72,4.25,2.21,1.6.49,3.63,1.01,6.09,1.57.8.12,1.38.25,1.75.37,2.46.61,4.54,1.17,6.23,1.66,1.69.49,3.61,1.28,5.77,2.35,2.15,1.08,3.88,2.28,5.17,3.6,1.29,1.32,2.4,3.08,3.32,5.26.92,2.18,1.38,4.63,1.38,7.34,0,6.34-2.37,11.26-7.11,14.76-4.74,3.51-10.4,5.26-16.98,5.26-5.11,0-10.1-.88-15-2.63-4.89-1.75-9.18-4.29-12.87-7.61l7.75-10.15c6.03,5.54,12.64,8.31,19.84,8.31s10.24-2.46,10.24-7.38c0-.86-.15-1.65-.46-2.35s-.82-1.32-1.52-1.85-1.43-.98-2.17-1.38c-.74-.4-1.72-.78-2.95-1.15s-2.32-.68-3.28-.92c-.95-.25-2.2-.55-3.74-.92-1.54-.37-2.8-.68-3.78-.92-2.03-.55-3.81-1.11-5.35-1.66s-3.14-1.34-4.8-2.35-3.01-2.12-4.06-3.32c-1.05-1.2-1.92-2.74-2.63-4.61s-1.06-3.95-1.06-6.23c0-6.15,2.32-10.97,6.97-14.44,4.64-3.48,10.17-5.21,16.56-5.21,8.61,0,16.64,2.77,24.08,8.3l-6.83,10.61c-5.78-4.49-11.44-6.74-16.98-6.74-2.58,0-4.84.52-6.78,1.57Z"/>
        <path class="cls-3" d="m287.32,363.38c-4.68,4.58-10.46,6.88-17.35,6.88s-12.67-2.29-17.35-6.88c-4.68-4.58-7.01-10.23-7.01-16.93s2.34-12.35,7.01-16.93,10.46-6.88,17.35-6.88,12.67,2.29,17.35,6.88,7.01,10.23,7.01,16.93-2.34,12.35-7.01,16.93Zm-9.09-26.25c-2.12-2.4-4.88-3.6-8.26-3.6s-6.14,1.2-8.26,3.6c-2.12,2.4-3.18,5.51-3.18,9.32s1.06,6.92,3.18,9.32c2.12,2.4,4.88,3.6,8.26,3.6s6.14-1.2,8.26-3.6c2.12-2.4,3.18-5.51,3.18-9.32s-1.06-6.92-3.18-9.32Z"/>
        <path class="cls-3" d="m312.63,329.19c3.08-4.37,7.63-6.55,13.66-6.55,4.92,0,8.92,1.55,12,4.66,3.08,3.11,4.61,7.18,4.61,12.23v29.62h-12.83v-28.05c0-2.21-.78-4.03-2.35-5.44-1.57-1.41-3.58-2.12-6.04-2.12-2.58,0-4.74.78-6.46,2.35-1.72,1.57-2.58,3.61-2.58,6.14v27.13h-12.83v-45.4h12.83v5.44Z"/>
        <path class="cls-3" d="m351.57,305.71c1.48-1.51,3.26-2.26,5.35-2.26,2.21,0,4.06.75,5.54,2.26,1.48,1.51,2.21,3.34,2.21,5.49s-.74,3.95-2.21,5.4c-1.48,1.45-3.32,2.17-5.54,2.17-2.09,0-3.88-.74-5.35-2.21s-2.21-3.26-2.21-5.35.74-3.98,2.21-5.49Zm11.81,63.44h-12.83v-45.4h12.83v45.4Z"/>
        <path class="cls-3" d="m375.62,363.48c-4.74-4.52-7.11-10.2-7.11-17.03s2.34-12.43,7.01-16.98c4.68-4.55,10.46-6.83,17.35-6.83s12.92,2.4,17.53,7.2l-7.94,7.94c-2.21-2.83-5.38-4.24-9.5-4.24-3.45,0-6.23,1.2-8.35,3.6-2.12,2.4-3.18,5.51-3.18,9.32s1.09,6.92,3.28,9.32c2.18,2.4,5,3.6,8.44,3.6,4.24,0,7.51-1.57,9.78-4.71l8.31,7.47c-4.37,5.41-10.46,8.12-18.27,8.12-6.83,0-12.61-2.26-17.35-6.78Z"/>
      </g>
      <g>
        <path class="cls-2" d="m126.77,153.15c-5.88,0-10.66,4.77-10.66,10.66,0,0,0,0,0,0h0v82.31c0,.71.29,1.39.81,1.87,5.14,4.83,10.65,9.24,16.48,13.19,1.71,1.16,4.02-.05,4.02-2.12v-95.22s0-.02,0-.04c0-5.88-4.77-10.66-10.66-10.66Z"/>
        <g class="cls-1">
          <rect class="cls-3" x="107.21" width="42.09" height="286.92"/>
        </g>
      </g>
      <g>
        <path class="cls-2" d="m284.46,153.15c-5.88,0-10.66,4.77-10.66,10.66,0,0,0,0,0,0h0v95.51c0,2.06,2.3,3.27,4.01,2.12,5.83-3.91,11.34-8.29,16.48-13.08.52-.49.81-1.17.81-1.88v-82.64s0-.02,0-.04c0-5.88-4.77-10.66-10.66-10.66Z"/>
        <g class="cls-4">
          <rect class="cls-3" x="269.97" width="29.83" height="286.92"/>
        </g>
      </g>
      <g>
        <path class="cls-2" d="m251.03,76.15c-5.88,0-10.66,4.77-10.66,10.66,0,0,0,0,0,0h0v170.26h0c0,3.19-2.59,5.78-5.78,5.78s-5.78-2.59-5.78-5.78h0V106.91h0c0-12.71-10.3-23-23-23s-23,10.3-23,23c0,.02,0,.04,0,.06v150.1h0c0,3.33-2.7,6.03-6.03,6.03s-6.03-2.7-6.03-6.03h0V86.81h0s0,0,0,0c0-5.88-4.77-10.66-10.66-10.66s-10.66,4.77-10.66,10.66c0,0,0,.02,0,.03v181.99c0,.99.57,1.9,1.46,2.32,6.02,2.84,12.3,5.22,18.77,7.11h0c.36.11.72.22,1.08.32,3.95,1.11,7.97,2.05,12.07,2.79,4.74.86,9.57,1.45,14.47,1.77,1.48.1,2.75-1.08,2.75-2.56v-114.69c0-3.5,3.12-6.28,6.73-5.7,2.82.45,4.83,3.01,4.83,5.87v114.53c0,1.49,1.26,2.66,2.74,2.56,4.55-.3,9.04-.83,13.46-1.6h0c.35-.06.69-.12,1.03-.18,3.92-.7,7.77-1.59,11.56-2.64.43-.12.87-.25,1.31-.37h0c6.38-1.86,12.57-4.19,18.53-6.96.9-.42,1.47-1.33,1.47-2.33V86.83s0-.02,0-.03c0-5.88-4.77-10.66-10.66-10.66Z"/>
        <g class="cls-7">
          <rect class="cls-3" x="145.06" width="124.91" height="286.92"/>
        </g>
      </g>
      <g>
        <path class="cls-2" d="m157.96,47.25c.38-.19.75-.38,1.14-.56,3.86-2.15,6.38-6.42,5.99-11.24-.47-5.69-5.11-10.3-10.8-10.72-1.57-.11-3.09.08-4.49.53-1.04.5-2.07,1.01-3.09,1.54-43.31,22.18-73.07,68.13-73.07,121.23,0,32.25,10.98,61.87,29.3,85.12.73.92,2.21.4,2.21-.77v-37.08c0-2.09-.4-4.15-1.15-6.1-4.91-12.74-7.61-26.63-7.61-41.17,0-44.36,25.13-82.69,61.57-100.78Z"/>
        <g class="cls-6">
          <rect class="cls-3" x="55.18" width="115.56" height="286.92"/>
        </g>
      </g>
      <g>
        <path class="cls-2" d="m306.09,232.39c0,1.17,1.48,1.69,2.21.77,18.33-23.25,29.3-52.87,29.3-85.12,0-53.1-29.76-99.05-73.07-121.23-.94-.66-1.98-1.18-3.09-1.54-1.4-.45-2.91-.65-4.49-.53-5.7.42-10.34,5.03-10.8,10.72-.39,4.82,2.13,9.09,5.99,11.24.37.21.75.4,1.14.56,36.44,18.09,61.57,56.42,61.57,100.78,0,14.54-2.7,28.43-7.61,41.17-.75,1.95-1.15,4.01-1.15,6.1v37.08Z"/>
        <g class="cls-5">
          <rect class="cls-3" x="243.15" width="113.82" height="286.92"/>
        </g>
      </g>
    </g>
  </g>
</svg>